<svg width="52" height="48" viewBox="0 0 52 48" fill="none" xmlns="http://www.w3.org/2000/svg">
<path d="M44.6905 26.6438L44.4012 29.8123L43.8919 32.9589L43.1637 36.0709L43.1357 36.1597L43.1019 36.2474L43.0629 36.3321L43.0175 36.4157L42.9663 36.4959L42.9093 36.5732L42.8476 36.6475L42.7806 36.7179L42.709 36.7842L42.6328 36.8471L42.5519 36.9053L42.4675 36.9589L42.3796 37.0079L40.6041 37.8636L38.7728 38.6196L36.8921 39.2729L34.9694 39.8218L33.0123 40.2629L31.0279 40.5956L29.0243 40.8182L27.0446 40.9232L27.0091 40.9295H25.9997H24.9903L24.9554 40.9232L22.9751 40.8182L20.9715 40.5956L18.9877 40.2629L17.0301 39.8218L15.1079 39.2729L13.2266 38.6196L11.3953 37.8636L9.61986 37.0079L9.53255 36.9589L9.44756 36.9053L9.36665 36.8471L9.29098 36.7842L9.21879 36.7179L9.15185 36.6475L9.09015 36.5732L9.0331 36.4959L8.98188 36.4157L8.93647 36.3321L8.89747 36.2474L8.86371 36.1597L8.83577 36.0709L8.10756 32.9589L7.59821 29.8123L7.30891 26.6438L7.24138 23.4655L7.39564 20.2895L7.7711 17.1284L8.36659 13.9939L8.38929 13.908L8.41724 13.8227L8.4411 13.7639L8.451 13.7391L8.49058 13.6578L8.53598 13.5788L9.18853 12.5853L9.91208 11.6321L10.7043 10.7228L11.5612 9.86132L11.9238 9.5413L12.4792 9.05118L13.4548 8.29638L14.4828 7.59868L15.5602 6.96267L16.682 6.39008L17.8427 5.88382L19.0383 5.44616L20.2631 5.07828L21.5128 4.78189L22.7807 4.55874L24.063 4.40882L25.353 4.33444H25.9997H26.6464L27.9364 4.40882L29.2187 4.55874L30.4872 4.78189L31.7364 5.07828L32.9617 5.44616L34.1567 5.88382L35.3175 6.39008L36.4392 6.96267L37.5167 7.59868L38.5447 8.29638L39.5203 9.05118L40.0756 9.5413L40.4382 9.86132L41.2951 10.7228L42.0873 11.6321L42.8109 12.5853L43.464 13.5788L43.5088 13.6578L43.5484 13.7391L43.5589 13.7639L43.5822 13.8227L43.6107 13.908L43.6334 13.9939L44.2283 17.1284L44.6044 20.2895L44.758 23.4655L44.6905 26.6438ZM51.9866 20.3489L51.9558 20.0767L51.908 19.808L51.8428 19.5416L51.7608 19.2798L51.6612 19.0238L51.5454 18.7741L51.4138 18.5314L51.2671 18.2972L51.1059 18.0718L50.9295 17.8567L50.7397 17.6526L50.5378 17.46L50.323 17.2801L50.0971 17.1129L49.8613 16.9595L49.5272 16.7698L49.4411 16.7139L49.3596 16.6533L49.2816 16.5876L49.2076 16.5178L49.139 16.444L49.0749 16.3656L49.0167 16.2837L48.9632 16.1984L48.9154 16.1101L48.8735 16.0196L48.8374 15.9268L48.5813 15.2677L48.2809 14.6265L47.9369 14.0055L47.5521 13.407L47.1272 12.8338L46.6644 12.2883L46.1644 11.7734L45.6312 11.2913L45.0666 10.8427L44.9938 10.7856L44.9239 10.7245L44.8582 10.6599L44.797 10.5919L44.7388 10.5204L44.6853 10.446L44.6364 10.3687L43.9221 9.25069L43.1334 8.17875L42.2759 7.15698L41.3521 6.18942L40.3649 5.28067L39.32 4.43362L38.221 3.6523L37.0719 2.94017L35.878 2.29897L34.644 1.73274L33.3744 1.24261L32.0751 0.831482L30.7508 0.500504L29.4074 0.250832L28.0499 0.0836105L26.6837 -3.8147e-06H25.9997H25.3157L23.9495 0.0836105L22.5921 0.250832L21.2486 0.500504L19.9243 0.831482L18.6256 1.24261L17.3555 1.73274L16.1214 2.29897L14.9275 2.94017L13.7784 3.6523L12.6794 4.43362L11.6345 5.28067L10.6479 6.18942L9.72406 7.15698L8.86604 8.17875L8.07787 9.25069L7.36304 10.3687L7.31415 10.446L7.26059 10.5204L7.20296 10.5919L7.14126 10.6599L7.07607 10.7245L7.0068 10.7856L6.93345 10.8427L6.36823 11.2913L5.83502 11.7734L5.33615 12.2883L4.8728 12.8338L4.44728 13.407L4.06251 14.0055L3.71849 14.6265L3.4187 15.2677L3.16199 15.9268L3.12649 16.0196L3.08399 16.1101L3.03626 16.1984L2.98329 16.2837L2.9245 16.3656L2.86105 16.444L2.79178 16.5178L2.71843 16.5876L2.64043 16.6533L2.55835 16.7139L2.47278 16.7698L2.13807 16.9595L1.90232 17.1129L1.67646 17.2801L1.46167 17.46L1.26026 17.6526L1.06991 17.8567L0.894115 18.0718L0.73229 18.2972L0.5856 18.5314L0.454041 18.7741L0.338785 19.0238L0.239247 19.2798L0.156589 19.5416L0.0913935 19.808L0.0436605 20.0767L0.0128082 20.3489L0 20.6216L0.00407694 20.8949L0.587927 33.3689L0.603062 33.5586L0.63042 33.7477L0.669421 33.9351L0.720063 34.1191L0.78235 34.3001L0.856858 34.4772L0.941848 34.6501L1.0379 34.8168L1.14442 34.9782L1.3697 35.2769L1.61301 35.5623L1.87438 35.8328L2.15263 36.0876L2.44601 36.3258L2.75394 36.5466L3.16141 36.8032L3.24349 36.862L3.32207 36.9261L3.396 36.9941L3.46527 37.0667L3.52988 37.1429L3.59042 37.223L3.64398 37.3066L3.69346 37.3931L3.73712 37.4819L4.1929 38.5954L4.6743 39.5912C5.03229 40.2289 13.0921 46.1093 13.0921 46.1093C13.0921 46.1093 17.2763 48 25.9997 48C34.7231 48 38.9073 46.1093 38.9073 46.1093C38.9073 46.1093 46.9671 40.2289 47.3251 39.5912L47.8071 38.5954L48.2629 37.4819L48.306 37.3931L48.3554 37.3066L48.4096 37.223L48.4695 37.1429L48.5341 37.0667L48.604 36.9941L48.6779 36.9261L48.7559 36.862L48.838 36.8032L49.2455 36.5466L49.5534 36.3258L49.8468 36.0876L50.125 35.8328L50.3864 35.5623L50.6297 35.2769L50.855 34.9782L50.9615 34.8168L51.0576 34.6501L51.1426 34.4772L51.2171 34.3001L51.2794 34.1191L51.33 33.9351L51.3696 33.7477L51.3969 33.5586L51.4115 33.3689L51.9953 20.8949L52 20.6216L51.9866 20.3489Z" fill="#F5F5FB"/>
<path d="M35.5564 26.4679H33.0947C32.7867 26.4679 32.537 26.7158 32.537 27.0209V28.7017C32.537 29.0079 32.4142 29.302 32.1953 29.5188L32.0387 29.6739C31.8199 29.8907 31.523 30.0118 31.2139 30.0118H20.7878C20.4787 30.0118 20.1819 29.8907 19.963 29.6739L19.8064 29.5188C19.5875 29.302 19.4647 29.0079 19.4647 28.7017V27.0209C19.4647 26.7158 19.215 26.4679 18.9065 26.4679H16.4453C16.1374 26.4679 15.8871 26.7158 15.8871 27.0209V29.4588C15.8871 29.7644 16.1374 30.0118 16.4453 30.0118H18.2987C18.6078 30.0118 18.9047 30.1334 19.1236 30.3502C19.3425 30.5671 19.4647 30.8611 19.4647 31.1673V32.9508C19.4647 33.2835 19.7395 33.5557 20.0753 33.5557H20.0771H31.9247H31.9258C32.2623 33.5557 32.537 33.2835 32.537 32.9508V31.1673C32.537 30.8611 32.6593 30.5671 32.8781 30.3502C33.097 30.1334 33.3939 30.0118 33.703 30.0118H35.5564C35.8643 30.0118 36.1146 29.7644 36.1146 29.4588V27.0209C36.1146 26.7158 35.8643 26.4679 35.5564 26.4679Z" fill="#F5F5FB"/>
</svg>