<svg width="180" height="180" viewBox="0 0 180 180" fill="none" xmlns="http://www.w3.org/2000/svg">
<g clip-path="url(#clip0_3992_4905)">
<path d="M28 89.52C28.1662 65.7374 37.7237 42.984 54.5905 26.2164C71.4574 9.44885 94.2668 0.0258011 118.05 0L124.64 0V14.31H118.05C98.0612 14.3331 78.8899 22.2476 64.7062 36.3321C50.5224 50.4166 42.4734 69.5318 42.31 89.52H28Z" fill="white"/>
<path d="M55.45 180.1V165.79H62C81.9888 165.767 101.16 157.852 115.344 143.768C129.528 129.683 137.577 110.568 137.74 90.5801H152.05C151.884 114.363 142.326 137.116 125.459 153.884C108.593 170.651 85.7831 180.074 62 180.1H55.45Z" fill="white"/>
<path d="M55.45 152.65V138.34H62C74.7181 138.336 86.9225 133.32 95.9688 124.381C105.015 115.441 110.175 103.297 110.33 90.5801H124.64C124.482 107.092 117.814 122.874 106.084 134.497C94.3549 146.119 78.5124 152.643 62 152.65H55.45Z" fill="white"/>
<path d="M55.45 89.5202C55.6106 73.0162 62.2742 57.2416 73.9944 45.6207C85.7145 33.9998 101.545 27.4705 118.05 27.4502H124.64V41.7602H118.05C105.339 41.775 93.1446 46.7949 84.1069 55.7334C75.0692 64.6719 69.9151 76.8099 69.7599 89.5202H55.45Z" fill="white"/>
<path d="M55.45 125.21V110.89H62C67.4401 110.894 72.6668 108.773 76.5655 104.979C80.4642 101.185 82.7265 96.0182 82.8699 90.5799V90.0499C82.8805 80.7256 86.5914 71.7867 93.1875 65.1962C99.7836 58.6057 108.726 54.9025 118.05 54.8999H124.64V69.2099H118.05C112.617 69.2184 107.402 71.3447 103.513 75.1372C99.6232 78.9297 97.3657 84.0894 97.22 89.5199V90.0499C97.2093 99.3821 93.4934 108.328 86.8889 114.921C80.2844 121.514 71.3321 125.215 62 125.21H55.45Z" fill="white"/>
</g>
<defs>
<clipPath id="clip0_3992_4905">
<rect width="180" height="180" fill="white"/>
</clipPath>
</defs>
</svg>